<?xml version="1.0" standalone="no"?>
<!DOCTYPE svg PUBLIC "-//W3C//DTD SVG 20010904//EN"
 "http://www.w3.org/TR/2001/REC-SVG-20010904/DTD/svg10.dtd">
<svg version="1.0" xmlns="http://www.w3.org/2000/svg"
 width="700.000000pt" height="700.000000pt" viewBox="0 0 700.000000 700.000000"
 preserveAspectRatio="xMidYMid meet">
<metadata>
Created by potrace 1.14, written by Peter Selinger 2001-2017
</metadata>
<g transform="translate(0.000000,700.000000) scale(0.100000,-0.100000)"
fill="#000000" stroke="none">
<path d="M1905 5090 c-114 -19 -148 -28 -250 -63 -426 -145 -772 -480 -931
-903 -29 -78 -69 -227 -81 -304 -10 -70 -11 -559 0 -625 22 -135 26 -153 63
-264 162 -487 553 -854 1054 -990 186 -51 156 -50 1770 -47 828 1 1523 6 1545
10 22 4 76 17 120 27 44 11 90 22 103 24 58 13 229 89 329 146 183 105 394
312 517 507 68 108 160 324 181 422 2 8 8 35 13 60 11 46 17 87 28 175 4 37 9
1718 5 1828 -1 16 -107 17 -2178 16 -2062 -1 -2184 -2 -2288 -19z m3707 -752
c2 -7 3 -240 2 -518 -1 -479 -3 -509 -23 -589 -76 -299 -314 -523 -611 -572
-31 -5 -674 -9 -1481 -9 -1259 -1 -1435 1 -1502 15 -208 43 -370 153 -487 332
-43 65 -92 179 -106 243 -22 108 -25 380 -4 489 56 303 280 533 590 606 80 19
3616 21 3622 3z"/>
</g>
</svg>
