<?xml version="1.0" encoding="utf-8"?>
<!-- Generator: Adobe Illustrator 27.7.0, SVG Export Plug-In . SVG Version: 6.00 Build 0)  -->
<svg version="1.1" id="Ebene_1" xmlns="http://www.w3.org/2000/svg" xmlns:xlink="http://www.w3.org/1999/xlink" x="0px" y="0px"
	 viewBox="0 0 120.5 67.6" style="enable-background:new 0 0 120.5 67.6;" xml:space="preserve">
<style type="text/css">
	.st0{fill:#FE3312;}
</style>
<g id="Ebene_2_00000091015499835083429470000000455992856617673912_">
	<g id="content">
		<path class="st0" d="M104.6,16v19.8c0,8.8-7.2,16-16,16H31.9c-8.8,0-16-7.2-16-16v-3.8c0-8.8,7.2-16,16-16L104.6,16 M120.5,0H31.9
			C14.2,0,0,14.3,0,31.9c0,0,0,0,0,0v3.8c0,17.6,14.3,31.9,31.9,31.9h56.8c17.6,0,31.9-14.3,31.9-31.9L120.5,0L120.5,0z"/>
	</g>
</g>
</svg>
